<svg xmlns="http://www.w3.org/2000/svg" width="615.843" height="346.286" viewBox="0 0 162.942 91.621"><g style="fill:#b0212b;fill-opacity:1"><path d="M122.056 146.093c-1.902-.522-4.56-1.901-5.178-2.687-.946-1.202-.718-1.9 1.446-4.426 2.43-2.835 3.668-4.89 5.435-9.02.748-1.747 1.472-3.312 1.61-3.48.138-.167 1.169-.383 2.29-.48l2.041-.177 1.72 1.68c1.82 1.78 3.301 2.617 5.754 3.256 3.97 1.034 9.28-.075 12.064-2.519.498-.437 1.073-.794 1.278-.794.533 0 1.013 2.043 1.01 4.303-.004 3.078-1.339 4.984-4.628 6.61-1.365.676-5.054 1.932-8.07 2.75-.946.256-2.434.879-3.307 1.385-5.591 3.237-7.63 4.016-10.413 3.978-.967-.013-2.34-.183-3.052-.379zM100.993 144.99c0-1.805-.61-3.69-2.25-6.96-3.177-6.336-3.068-7.934.802-11.775 1.32-1.31 2.81-2.897 3.312-3.528l.914-1.146 1.852 1.252c4.335 2.932 7.91 4.08 13.322 4.278l3.796.139-.161.806c-.28 1.396-2.758 6.14-4.454 8.525-2.423 3.405-6.332 7.005-9.096 8.374-2.123 1.052-2.37 1.11-5.134 1.225l-2.903.12zM153.334 133.89c-.39-.069-.83-.27-.976-.448-.147-.177-.38-1.748-.515-3.49-.23-2.932-.208-3.246.286-4.226 1.165-2.31 2.724-3.718 4.521-4.084.674-.137.899-.368 1.187-1.218.503-1.485.262-4.97-.456-6.593-.981-2.218-.702-5.303.935-10.33.776-2.384 1.129-2.885 2.528-3.6 1.272-.649 3.876-.675 5.051-.051.466.247 1.74.753 2.831 1.125 2.936.998 2.917.936 3.175 9.882.15 5.193.331 7.73.654 9.113.37 1.593.392 2.086.123 2.91-1.245 3.82-7.196 8.634-12.815 10.37-1.82.561-5.136.887-6.53.64zM83.332 129.955c-3.13-.68-5.992-2.81-7.426-5.529-.686-1.3-.71-1.498-.735-5.843-.015-2.556-.149-4.798-.311-5.192-.158-.38-.834-1.365-1.503-2.186-.668-.821-1.412-1.905-1.652-2.408-.407-.854-.406-1.027.023-2.576 1.082-3.918 3.602-7.634 6.06-8.938l1.183-.627 2.459.603c1.79.439 2.83.557 3.82.433l1.361-.17.427 1.534c.7 2.514 2.442 4.2 5.708 5.528l1.468.597.489 2.07c.686 2.911 2.248 5.966 4.525 8.855 1.074 1.362 2.149 2.858 2.388 3.323 1.169 2.275-.023 4.17-4.758 7.57-3.924 2.817-9.03 3.933-13.526 2.956z" style="fill:#b0212b;fill-opacity:1;stroke:#e7db1b;stroke-width:.30000001;stroke-miterlimit:4;stroke-dasharray:none;stroke-opacity:1;paint-order:normal" transform="matrix(-1 0 0 1 204.817 -55.002)"/><path d="M137.373 129.735c-2.614-.681-6.236-3.112-6.208-4.166.006-.206 1.195-.939 2.662-1.64 2.114-1.013 3.072-1.672 4.73-3.256 4.22-4.031 5.641-8.406 6.786-20.876l.461-5.027 1.57-1.455c2.172-2.015 3.087-3.42 3.279-5.038l.158-1.334 2.277.178c1.252.098 2.445.31 2.651.474.801.633 2.167 3.138 2.573 4.72.559 2.172.348 5.558-.556 8.937-2.32 8.676-2.464 9.661-1.874 12.809.231 1.234.43 2.963.443 3.841l.023 1.597-3.62 3.775c-3.91 4.078-5.366 5.218-7.74 6.06-1.92.683-5.76.885-7.615.401zM114.354 125.037c-3.935-.927-8.65-3.676-11.402-6.65-3.35-3.618-6.386-8.773-7.112-12.076l-.18-.825h1.806c3.687 0 8.866 1.35 12.92 3.367 3.755 1.868 7.345 4.174 8.502 5.46 2.162 2.404 2.55 6.164.965 9.37l-.749 1.514-1.846.045c-1.015.024-2.322-.068-2.904-.205z" style="fill:#b0212b;fill-opacity:1;stroke:#e7db1b;stroke-width:.30000001;stroke-miterlimit:4;stroke-dasharray:none;stroke-opacity:1;paint-order:normal" transform="matrix(-1 0 0 1 204.817 -55.002)"/><path d="M120.837 125.097c0-.128.31-.913.691-1.743 1.848-4.036 1.845-6.317-.016-10.703-1.455-3.433-.981-5.052 2.407-8.221 2.266-2.12 4.356-3.498 7.86-5.183 3.875-1.863 11.788-4.457 12.234-4.01.092.091-.025 1.215-.26 2.496-.235 1.28-.541 4.412-.68 6.959-.278 5.086-.601 6.623-1.973 9.393-2.286 4.614-6.34 7.945-12.061 9.908-3.14 1.078-8.202 1.76-8.202 1.104zM116.753 110.404c-1.716-1.283-5.718-3.355-7.993-4.138-2.384-.82-5.704-1.555-10.148-2.246-6.29-.978-8.117-1.812-9.362-4.276-.45-.89-.56-4.339-.182-5.635.114-.39.041-1.098-.175-1.72-.621-1.784-.721-4.343-.235-6.016.633-2.178 1.809-3.556 4.075-4.775 1.306-.702 2.285-1.474 3.042-2.396a50.073 50.073 0 0 1 2.597-2.854c1.3-1.311 1.646-1.516 2.84-1.68 1.465-.202 3.414.022 3.948.453.693.56.32 1.129-1.157 1.769-3.372 1.46-5.663 4.653-6.225 8.675-.607 4.346 1.505 10.337 4.96 14.07 1.853 2 3.429 3.085 7.912 5.45 4.9 2.585 8.674 5.458 8.192 6.237-.246.4-.444.313-2.089-.918z" style="fill:#b0212b;fill-opacity:1;stroke:#e7db1b;stroke-width:.30000001;stroke-miterlimit:4;stroke-dasharray:none;stroke-opacity:1;paint-order:normal" transform="matrix(-1 0 0 1 204.817 -55.002)"/><path d="M117.069 107.003c-.83-.62-3.03-1.947-4.89-2.949-3.822-2.059-6.694-3.956-7.95-5.252-1.202-1.24-1.469-2.978-1.31-8.53.14-4.83.552-7.081 1.96-10.702.978-2.513 1.404-2.474 2.01.185.948 4.148 3.62 8.658 7.674 12.95 5.991 6.344 7.219 8.575 6.534 11.876-.3 1.442-1.598 3.55-2.185 3.55-.184 0-1.013-.507-1.843-1.128z" style="fill:#b0212b;fill-opacity:1;stroke:#e7db1b;stroke-width:.30000001;stroke-miterlimit:4;stroke-dasharray:none;stroke-opacity:1;paint-order:normal" transform="matrix(-1 0 0 1 204.817 -55.002)"/><path d="M122.953 100.967c0-.624-3.36-5.104-6.983-9.311-4.849-5.631-7.217-9.292-7.71-11.92-.146-.782-.101-.973.228-.973.226 0 .483.116.57.258.348.562 3.552 2.119 5.423 2.635 2.684.74 7.055.752 9.898.025 1.875-.48 3.64-1.218 5.11-2.137.321-.2.654-.294.74-.208.086.085.275 1.62.42 3.408.272 3.362-.009 9.135-.593 12.21-.284 1.495-.309 1.525-2.707 3.352-1.332 1.013-2.646 2.091-2.92 2.395-.526.58-1.476.752-1.476.266zM167.602 99.556c-.692-.186-1.507-.565-1.813-.841-.617-.559-1.947-.637-4.606-.273l-1.59.218.096-3.023c.11-3.469-.358-5.857-1.421-7.25-.36-.472-.654-1.014-.654-1.206 0-.192.465-.8 1.033-1.35 2.419-2.347 2.74-5.597.915-9.242-1.1-2.197-.942-2.305 2.622-1.79 5.426.785 7.559 2.875 6.851 6.714-.795 4.315-.186 9.434 1.525 12.824.918 1.818 1.064 3.544.408 4.812-.461.893-1.219.984-3.366.407zM133.14 95.822c1.885-1.377 3.476-2.84 4.51-4.146 5.211-6.592 5.45-13.135.639-17.49-.868-.785-1.577-1.56-1.577-1.72 0-.43 1.69-.713 4.1-.684 3.767.045 5.69.992 5.69 2.804 0 .48-.366 1.944-.813 3.253-.99 2.898-.872 3.548 1.086 5.988 2.376 2.96 2.663 5.403.87 7.389-1.5 1.659-3.473 2.463-11.33 4.617-1.455.399-2.814.79-3.02.868-.414-.196-.483-.635-.155-.879zM82.399 96.126c-2.408-.67-4.663-2.61-6.044-5.2-.543-1.02-.63-1.549-.63-3.829 0-2.513.051-2.752 1.003-4.762.918-1.94 1.377-2.484 5.453-6.483 4.419-4.335 4.454-4.378 5.005-6.217.954-3.182 2.863-5.622 5.415-6.92 1.823-.93 4.577-1.14 6.504-.5 1.917.636 2.051 1.042.832 2.51-1.433 1.725-1.906 2.805-2.058 4.699-.097 1.215-.007 1.995.334 2.888l.467 1.224-.829.65c-.456.356-1.203 1.205-1.66 1.885-1.285 1.915-2.57 3.141-4.048 3.864-4.742 2.32-6.782 7.49-5.009 12.691.351 1.031.366 1.371.088 2.042-.628 1.516-2.538 2.093-4.823 1.458z" style="fill:#b0212b;fill-opacity:1;stroke:#e7db1b;stroke-width:.30000001;stroke-miterlimit:4;stroke-dasharray:none;stroke-opacity:1;paint-order:normal" transform="matrix(-1 0 0 1 204.817 -55.002)"/><path d="M132.111 92.058c.13-1.419.235-5.02.235-8.004 0-6.58-.24-7.647-2.175-9.63-1.58-1.62-2.652-2.081-4.836-2.084-2.186-.003-4.144.83-5.45 2.253-.974 1.063-.897 1.793-.775 3.256.18 2.164.173 2.202-.508 2.649-1.752 1.147-6.612-.358-9.007-2.79-1.023-1.039-1.277-1.489-1.386-2.453-.598-5.308 9.24-9.655 17.228-7.612 5.92 1.514 9.544 5.136 11.172 11.165.56 2.069.63 7.686.133 10.472-.34 1.903-.36 1.934-2.227 3.638-1.036.946-2.053 1.72-2.261 1.72-.317 0-.34-.413-.143-2.58zM99.908 91.33c-.197-.472-.334-2.025-.34-3.836-.008-2.527.088-3.29.57-4.498.647-1.624 2.016-3.44 2.594-3.44.513 0 .48.356-.252 2.654-.939 2.95-1.197 4.195-1.39 6.712-.097 1.255-.328 2.49-.514 2.742-.308.42-.366.39-.668-.334zM151.247 85.41c-1.638-.642-2.69-1.46-3.725-2.902-1.103-1.537-1.133-3.014-.119-5.954 1.127-3.267.388-4.302-2.8-5.457-2.035-.467-1.89-1.744-1.974-3.51-.33-2.652-.644-2.808 1.079-4.669.673-.611 1.835-.973 4.3-1.337 3.983-.588 7.332-.124 9.323 1.294 2.096 1.493 2.488 4.449 1.239 9.356l-.728 2.861.742 2.298c.984 3.05.974 4.358-.044 6.003-1.44 2.324-4.409 3.145-7.293 2.016zM138.76 82.864c-.084-1.601-.296-3.474-.47-4.163-.372-1.474-.18-2.375.377-1.771.573.62 1.222 2.568 1.39 4.174.17 1.636-.349 4.84-.694 4.282-.696-.295-.547-1.516-.602-2.522z" style="fill:#b0212b;fill-opacity:1;stroke:#e7db1b;stroke-width:.30000001;stroke-miterlimit:4;stroke-dasharray:none;stroke-opacity:1;paint-order:normal" transform="matrix(-1 0 0 1 204.817 -55.002)"/><path d="M120.509 80.98c-.075-.128-.062-1.44.03-2.917.187-3.03.484-3.595 2.153-4.095 1.58-.473 5.109-.205 5.998.456 2.179 1.62.153 4.908-3.74 6.073-1.696.507-4.263.786-4.441.482zM105.226 73.339c-.51-.196-1.834-.366-2.944-.377-1.537-.015-2.105-.124-2.381-.458-.56-.673-.467-3.97.143-5.118 1.385-2.606 2.711-3.632 11.771-9.108l5.134-3.103 1.216.649c2.284 1.218 4.634 1.83 10.933 2.844 3.62.583 6.503 1.447 8.256 2.475 1.42.832 3.449 3.01 3.973 4.263.433 1.037.555 3.99.189 4.567-.118.186-.98.46-1.914.609-.935.149-2.268.395-2.963.548l-1.263.277-1.84-1.736c-3.123-2.946-5.562-3.72-11.773-3.732-5.343-.011-8.213.712-11.307 2.85-1.635 1.13-2.446 2.056-3.345 3.822-.634 1.245-.587 1.227-1.885.728z" style="fill:#b0212b;fill-opacity:1;stroke:#e7db1b;stroke-width:.30000001;stroke-miterlimit:4;stroke-dasharray:none;stroke-opacity:1;paint-order:normal" transform="matrix(-1 0 0 1 204.817 -55.002)"/></g><g style="fill:#316046;fill-opacity:1;stroke:#e7db1b;stroke-width:.30000001;stroke-miterlimit:4;stroke-dasharray:none;stroke-opacity:1;paint-order:normal"><path style="fill:#316046;fill-opacity:1;stroke:#e7db1b;stroke-width:.30000001;stroke-miterlimit:4;stroke-dasharray:none;stroke-opacity:1;paint-order:normal" d="M61.217 139.856c-3.793-.554-7.218-1.746-10.628-3.696-2.293-1.312-6.286-4.703-7.665-6.51-.869-1.137-.95-1.386-.879-2.705l.078-1.454 1.852-1.416c4.05-3.095 7.013-6.655 11.51-13.824 5.408-8.622 8.749-12.692 12.608-15.36 2.1-1.45 4.583-2.628 5.516-2.614 4.352.525 3.835 3.326 1.514 5.418-2.1 2.314-3.448 3.514-4.416 7.29-.545 2.129-.854 3.483.922 6.765l2.028 2.35-.187 4.88c.012 2.841.134 3.256.9 4.862 1.56 3.277 4.118 5.998 7.639 7.077 2.162.662 2.263 1.048.662 2.522-2.336 2.15-6.454 3.949-12.899 5.632-4.221 1.102-5.544 1.223-8.555.783zM204.655 133.399c-3.55-15.543-11.722-37.015-32.386-38.318-.38.006.571 1.876 0 3.03-.436.883-1.013 2.345-1.051 2.441-.038.096.91 1.924.91 1.924 1.585 4.382-.033 12.442 1.42 16.189 1.07 2.214.375 4.89-.265 6.369-2.412 3.466-8.256 7.61-11.777 8.689-2.161.662.494 3.85 2.363 4.79 12.749 4.025 31.577 6.523 40.786-5.114z" transform="matrix(-1 0 0 1 204.817 -55.002)"/></g></svg>